<svg width="412" height="870" viewBox="0 0 412 870" fill="none" xmlns="http://www.w3.org/2000/svg">
<path d="M366.725 -6.5L52.0654 243.552L51.2539 244.196L51.9277 244.984L424.5 680.868V866.846L-79.0039 293.505H-79.0029C-91.0459 279.581 -97 265.334 -97 250.665C-96.9999 239.037 -94.3402 228.903 -88.9043 220.151L-88.3691 219.309L-88.3662 219.304C-82.6195 210.313 -71.1342 198.555 -53.8926 184.095L-53.8936 184.094L177.195 -6.5H366.725Z" stroke="#F7A715" stroke-width="2"/>
<path d="M689.051 -7L374.392 243.052L373.551 243.72L374.278 244.511L609.699 501H424.603L243.321 293.002C231.279 279.079 225.327 264.833 225.327 250.165C225.327 238.537 227.986 228.403 233.422 219.651L233.958 218.809L233.96 218.804C239.707 209.813 251.192 198.055 268.434 183.595L268.433 183.594L499.522 -7H689.051Z" stroke="#F7A715" stroke-width="2"/>
</svg>
