<?xml version="1.0" encoding="UTF-8"?>
<svg id="Calque_1" xmlns="http://www.w3.org/2000/svg" viewBox="0 0 272.44 277.79">
  <defs>
    <style>
      .cls-1 {
        fill: #1d1d1b;
      }

      .cls-2 {
        fill: #b71918;
      }
    </style>
  </defs>
  <path class="cls-2" d="M177.2,60.43l-17.38,98.57c-.54,3.07-3.47,5.56-6.54,5.56h-26.16c-3.07,0-6,2.49-6.54,5.56l-1.99,11.31c-.54,3.07,1.51,5.56,4.58,5.56h48.6c3.07,0,6-2.49,6.54-5.56l2.98-16.87,18.36-104.13c.54-3.07-1.51-5.56-4.58-5.56h-11.31c-3.07,0-6,2.49-6.54,5.56Z"/>
  <path class="cls-2" d="M213.13,60.39l-23.73,134.57c-.54,3.05-3.45,5.52-6.49,5.52h-62.17c-3.05,0-5.96,2.47-6.49,5.52l-2.01,11.39c-.54,3.05,1.5,5.52,4.55,5.52h67.69c12.39,0,24.21-10.04,26.39-22.44h0s24.7-140.09,24.7-140.09c.54-3.05-1.5-5.52-4.55-5.52h-11.39c-3.05,0-5.96,2.47-6.49,5.52Z"/>
  <path class="cls-1" d="M95.24,217.36l17.38-98.57c.54-3.07,3.47-5.56,6.54-5.56h26.16c3.07,0,6-2.49,6.54-5.56l1.99-11.31c.54-3.07-1.51-5.56-4.58-5.56h-48.6c-3.07,0-6,2.49-6.54,5.56l-2.98,16.87-18.36,104.13c-.54,3.07,1.51,5.56,4.58,5.56h11.31c3.07,0,6-2.49,6.54-5.56Z"/>
  <path class="cls-1" d="M59.31,217.4l23.73-134.57c.54-3.05,3.45-5.52,6.49-5.52h62.17c3.05,0,5.96-2.47,6.49-5.52l2.01-11.39c.54-3.05-1.5-5.52-4.55-5.52h-67.69c-12.39,0-24.21,10.04-26.39,22.44h0s-24.7,140.09-24.7,140.09c-.54,3.05,1.5,5.52,4.55,5.52h11.39c3.05,0,5.96-2.47,6.49-5.52Z"/>
</svg>