<svg width="33" height="33" viewBox="0 0 33 33" fill="none" xmlns="http://www.w3.org/2000/svg">
<g clip-path="url(#clip0_240_2669)">
<path d="M25.7757 8.76335C25.5091 7.97669 24.7624 7.41669 23.8824 7.41669H9.21574C8.33574 7.41669 7.60241 7.97669 7.32241 8.76335L4.54907 16.75V27.4167C4.54907 28.15 5.14907 28.75 5.88241 28.75H7.21574C7.94907 28.75 8.54907 28.15 8.54907 27.4167V26.0834H24.5491V27.4167C24.5491 28.15 25.1491 28.75 25.8824 28.75H27.2157C27.9491 28.75 28.5491 28.15 28.5491 27.4167V16.75L25.7757 8.76335ZM9.21574 22.0834C8.10907 22.0834 7.21574 21.19 7.21574 20.0834C7.21574 18.9767 8.10907 18.0834 9.21574 18.0834C10.3224 18.0834 11.2157 18.9767 11.2157 20.0834C11.2157 21.19 10.3224 22.0834 9.21574 22.0834ZM23.8824 22.0834C22.7757 22.0834 21.8824 21.19 21.8824 20.0834C21.8824 18.9767 22.7757 18.0834 23.8824 18.0834C24.9891 18.0834 25.8824 18.9767 25.8824 20.0834C25.8824 21.19 24.9891 22.0834 23.8824 22.0834ZM7.21574 15.4167L9.21574 9.41669H23.8824L25.8824 15.4167H7.21574Z" fill="#B71918"/>
</g>
<defs>
<clipPath id="clip0_240_2669">
<rect width="32" height="32" fill="white" transform="translate(0.549072 0.75)"/>
</clipPath>
</defs>
</svg>
