<svg width="33" height="33" viewBox="0 0 33 33" fill="none" xmlns="http://www.w3.org/2000/svg">
<g clip-path="url(#clip0_240_2688)">
<path d="M22.0484 16.75C23.8884 16.75 25.3684 15.2567 25.3684 13.4167C25.3684 11.5767 23.8884 10.0834 22.0484 10.0834C20.2084 10.0834 18.7151 11.5767 18.7151 13.4167C18.7151 15.2567 20.2084 16.75 22.0484 16.75ZM12.0484 15.4167C14.2618 15.4167 16.0351 13.63 16.0351 11.4167C16.0351 9.20335 14.2618 7.41669 12.0484 7.41669C9.83509 7.41669 8.04842 9.20335 8.04842 11.4167C8.04842 13.63 9.83509 15.4167 12.0484 15.4167ZM22.0484 19.4167C19.6084 19.4167 14.7151 20.6434 14.7151 23.0834V26.0834H29.3818V23.0834C29.3818 20.6434 24.4884 19.4167 22.0484 19.4167ZM12.0484 18.0834C8.94175 18.0834 2.71509 19.6434 2.71509 22.75V26.0834H12.0484V23.0834C12.0484 21.95 12.4884 19.9634 15.2084 18.4567C14.0484 18.2167 12.9284 18.0834 12.0484 18.0834Z" fill="#B71918"/>
</g>
<defs>
<clipPath id="clip0_240_2688">
<rect width="32" height="32" fill="white" transform="translate(0.0483398 0.75)"/>
</clipPath>
</defs>
</svg>
