<svg width="33" height="33" viewBox="0 0 33 33" fill="none" xmlns="http://www.w3.org/2000/svg">
<g clip-path="url(#clip0_240_2679)">
<path d="M12.1465 15.4167H9.47982V18.0834H12.1465V15.4167ZM17.4798 15.4167H14.8132V18.0834H17.4798V15.4167ZM22.8132 15.4167H20.1465V18.0834H22.8132V15.4167ZM25.4798 6.08335H24.1465V3.41669H21.4798V6.08335H10.8132V3.41669H8.14648V6.08335H6.81315C5.33315 6.08335 4.15982 7.28335 4.15982 8.75002L4.14648 27.4167C4.14648 28.8834 5.33315 30.0834 6.81315 30.0834H25.4798C26.9465 30.0834 28.1465 28.8834 28.1465 27.4167V8.75002C28.1465 7.28335 26.9465 6.08335 25.4798 6.08335ZM25.4798 27.4167H6.81315V12.75H25.4798V27.4167Z" fill="#B71918"/>
</g>
<defs>
<clipPath id="clip0_240_2679">
<rect width="32" height="32" fill="white" transform="translate(0.146484 0.75)"/>
</clipPath>
</defs>
</svg>
