<svg width="33" height="33" viewBox="0 0 33 33" fill="none" xmlns="http://www.w3.org/2000/svg">
<path d="M5.47302 11.3046L10.4664 14.1876L9.74626 15.4348L8.52347 14.7288C8.47838 14.7925 8.43911 14.84 8.40818 14.8924C7.80896 15.9279 7.20482 16.9598 6.61497 18.0007C5.78802 19.4596 6.06206 21.1862 7.29135 22.3277C7.39102 22.42 7.4917 22.5178 7.60829 22.5844C8.35993 23.0142 9.08923 23.4971 9.87723 23.8471C11.4217 24.533 13.2796 23.9065 14.1592 22.4516C14.7645 21.4502 15.5774 20.7009 16.6641 20.259C17.6141 19.8731 18.5908 19.8084 19.5926 20.0156C20.6209 20.2276 21.6444 20.473 22.6821 20.6229C24.2126 20.844 25.3956 20.2318 26.2037 18.9296C26.7239 18.0912 27.2068 17.2284 27.6866 16.3659C28.6143 14.699 28.0711 12.634 26.4224 11.671C23.3859 9.89775 20.3412 8.13988 17.2872 6.39683C15.6294 5.45083 13.5684 6.01362 12.5912 7.65331C11.9624 8.7086 11.3597 9.77895 10.7456 10.8427C10.726 10.8766 10.7104 10.912 10.6816 10.9705L11.9148 11.6825L11.1905 12.937L6.19553 10.0532L6.91805 8.80177L8.16952 9.52431C8.2222 9.43306 8.25803 9.37101 8.29355 9.30948C8.87096 8.30937 9.44555 7.30694 10.0266 6.30894C11.5563 3.68112 14.4643 2.50262 17.3916 3.32711C17.7134 3.41764 18.0244 3.54853 18.3405 3.66084C21.6501 5.57165 24.9592 7.48215 28.2688 9.39295C28.4657 9.5553 28.6724 9.70663 28.8576 9.88094C30.7703 11.6798 31.4161 13.8561 30.7747 16.4037C30.6872 16.7502 30.5395 17.0821 30.4199 17.4204L28.4209 20.8827C28.3815 20.9198 28.3366 20.9529 28.303 20.9954C26.7482 22.9719 24.7207 23.8272 22.2299 23.4821C21.1606 23.3341 20.1066 23.0703 19.0463 22.8573C18.0316 22.6531 17.2371 23.0009 16.678 23.8704C16.4531 24.2203 16.2229 24.5768 15.9383 24.877C14.1619 26.7484 12.0053 27.3756 9.49815 26.77C9.11924 26.6785 8.75706 26.5195 8.38653 26.3917L6.00874 25.0189C5.8236 24.8675 5.63501 24.7197 5.4531 24.5639C3.32039 22.7437 2.62166 19.5983 3.86028 17.0784C4.45701 15.8642 5.18475 14.7145 5.85303 13.5354C5.89917 13.4543 5.94635 13.3737 6.00114 13.2788L4.7502 12.5566L5.47271 11.3052L5.47302 11.3046Z" fill="#B71918"/>
</svg>
